<svg xmlns="http://www.w3.org/2000/svg" width="1086" height="1448" viewBox="0 0 1086 1448">
  <defs>
    <radialGradient id="redGrad" cx="38%" cy="30%" r="75%">
      <stop offset="0" stop-color="#C52B2E"/>
      <stop offset="0.55" stop-color="#A71318"/>
      <stop offset="1" stop-color="#87080D"/>
    </radialGradient>
    <linearGradient id="woodGrad" x1="0" y1="0" x2="0" y2="1">
      <stop offset="0" stop-color="#E8D1AF"/>
      <stop offset="1" stop-color="#DDB987"/>
    </linearGradient>
    <filter id="softShadow" x="-30%" y="-30%" width="160%" height="160%">
      <feDropShadow dx="0" dy="5" stdDeviation="7" flood-color="#7A3B18" flood-opacity="0.13"/>
    </filter>
    <marker id="arrow" viewBox="0 0 10 10" refX="8" refY="5" markerWidth="8" markerHeight="8" orient="auto-start-reverse">
      <path d="M 0 0 L 10 5 L 0 10" fill="none" stroke="#DFBC8B" stroke-width="2.2" stroke-linecap="round" stroke-linejoin="round"/>
    </marker>
    <style>
      .zh { font-family: "Noto Sans CJK SC", "Microsoft YaHei", "PingFang SC", sans-serif; }
      .topic { fill:#3B2418; font-size:28px; font-weight:700; letter-spacing:.2px; }
      .pending { fill:#3B2418; font-size:34px; font-weight:700; }
      .subj { fill:#FFFFFF; font-size:56px; font-weight:800; }
      .subj-sub { fill:#FFFFFF; font-size:28px; font-weight:700; }
    </style>
  </defs>

  <!-- background -->
  <rect width="1086" height="1448" fill="#FFF9F0"/>
  <rect x="22" y="22" width="1042" height="1398" rx="24" fill="none" stroke="#F0DDC3" stroke-width="2.5"/>

  <!-- tree: trunk and crown branches -->
  <g fill="none" stroke="url(#woodGrad)" stroke-linecap="round" stroke-linejoin="round">
    <path d="M543 1235 C542 1070 539 910 543 745 C546 612 544 500 543 386" stroke-width="68"/>
    <path d="M543 505 C520 421 472 337 405 279" stroke-width="20"/>
    <path d="M543 505 C566 421 614 337 681 279" stroke-width="20"/>
    <path d="M532 730 C500 655 455 602 405 574" stroke-width="18"/>
    <path d="M554 730 C586 655 631 602 681 574" stroke-width="18"/>
    <!-- subtle upper twigs -->
    <path d="M511 438 C489 418 468 398 455 374" stroke-width="8"/>
    <path d="M575 438 C597 418 618 398 631 374" stroke-width="8"/>
  </g>

  <!-- pending branches, behind nodes -->
  <g fill="none" stroke="#DFBC8B" stroke-width="12" stroke-linecap="round">
    <path d="M504 1006 C450 936 360 811 238 760"/>
    <path d="M497 1035 C435 995 351 900 238 850"/>
    <path d="M492 1068 C422 1047 350 967 238 940"/>
    <path d="M490 1101 C418 1095 344 1044 238 1030"/>

    <path d="M582 995 C643 918 731 790 849 725"/>
    <path d="M589 1023 C662 967 742 850 849 810"/>
    <path d="M594 1053 C674 1018 748 922 800 895"/>
    <path d="M596 1084 C680 1069 756 987 849 980"/>
    <path d="M595 1113 C681 1112 752 1065 849 1065"/>
  </g>

  <!-- flared base -->
  <path d="M497 1192 C494 1250 484 1302 447 1328 C425 1343 392 1348 359 1351 L727 1351 C694 1348 661 1343 639 1328 C602 1302 592 1250 589 1192 Z" fill="url(#woodGrad)"/>

  <!-- topic boxes and connectors: Chinese -->
  <g class="zh">
    <rect x="24" y="93" width="270" height="68" rx="16" fill="#FFFDF8" stroke="#E5BE83" stroke-width="2.2"/>
    <rect x="24" y="177" width="270" height="68" rx="16" fill="#FFFDF8" stroke="#E5BE83" stroke-width="2.2"/>
    <path d="M304 127 C326 127 328 151 314 166 C308 173 306 181 306 205" fill="none" stroke="#A90F16" stroke-width="3.2" stroke-linecap="round"/>
    <path d="M304 211 C326 211 326 211 306 211" fill="none" stroke="#A90F16" stroke-width="3.2" stroke-linecap="round"/>
    <circle cx="304" cy="127" r="8" fill="#A90F16"/>
    <circle cx="304" cy="211" r="8" fill="#A90F16"/>
    <text x="159" y="137" text-anchor="middle" class="topic zh">逻辑段落写作</text>
    <text x="159" y="221" text-anchor="middle" class="topic zh" font-size="27">口头讲解“4’12”</text>
  </g>

  <!-- topic boxes and connectors: Math -->
  <g class="zh">
    <rect x="792" y="31" width="270" height="58" rx="15" fill="#FFFDF8" stroke="#E5BE83" stroke-width="2.2"/>
    <rect x="792" y="99" width="270" height="58" rx="15" fill="#FFFDF8" stroke="#E5BE83" stroke-width="2.2"/>
    <rect x="792" y="167" width="270" height="58" rx="15" fill="#FFFDF8" stroke="#E5BE83" stroke-width="2.2"/>
    <rect x="792" y="235" width="270" height="58" rx="15" fill="#FFFDF8" stroke="#E5BE83" stroke-width="2.2"/>
    <rect x="792" y="303" width="270" height="58" rx="15" fill="#FFFDF8" stroke="#E5BE83" stroke-width="2.2"/>
    <path d="M782 60 C755 60 768 116 775 136 C784 160 784 178 784 205" fill="none" stroke="#A90F16" stroke-width="3.2" stroke-linecap="round"/>
    <path d="M782 128 C756 128 770 166 784 188" fill="none" stroke="#A90F16" stroke-width="3.2" stroke-linecap="round"/>
    <path d="M782 196 C756 196 756 205 784 205" fill="none" stroke="#A90F16" stroke-width="3.2" stroke-linecap="round"/>
    <path d="M782 264 C756 264 770 240 784 222" fill="none" stroke="#A90F16" stroke-width="3.2" stroke-linecap="round"/>
    <path d="M782 332 C755 332 768 276 775 256 C784 232 784 218 784 205" fill="none" stroke="#A90F16" stroke-width="3.2" stroke-linecap="round"/>
    <circle cx="782" cy="60" r="8" fill="#A90F16"/><circle cx="782" cy="128" r="8" fill="#A90F16"/>
    <circle cx="782" cy="196" r="8" fill="#A90F16"/><circle cx="782" cy="264" r="8" fill="#A90F16"/>
    <circle cx="782" cy="332" r="8" fill="#A90F16"/>
    <text x="927" y="69" text-anchor="middle" class="topic zh" font-size="27">估算与近似</text>
    <text x="927" y="137" text-anchor="middle" class="topic zh" font-size="27">数的运算与量感</text>
    <text x="927" y="205" text-anchor="middle" class="topic zh" font-size="27">数据收集与处理</text>
    <text x="927" y="273" text-anchor="middle" class="topic zh" font-size="27">空间与位置</text>
    <text x="927" y="341" text-anchor="middle" class="topic zh" font-size="27">抽样与推断</text>
  </g>

  <!-- topic boxes and connectors: Science -->
  <g class="zh">
    <rect x="18" y="452" width="282" height="68" rx="16" fill="#FFFDF8" stroke="#E5BE83" stroke-width="2.2"/>
    <rect x="18" y="536" width="282" height="68" rx="16" fill="#FFFDF8" stroke="#E5BE83" stroke-width="2.2"/>
    <path d="M310 486 C328 486 326 504 308 522 C302 528 302 535 302 544" fill="none" stroke="#A90F16" stroke-width="3.2" stroke-linecap="round"/>
    <path d="M310 570 C328 570 326 552 308 534" fill="none" stroke="#A90F16" stroke-width="3.2" stroke-linecap="round"/>
    <circle cx="310" cy="486" r="8" fill="#A90F16"/><circle cx="310" cy="570" r="8" fill="#A90F16"/>
    <text x="159" y="496" text-anchor="middle" class="topic zh" font-size="27">感官记录与证据链</text>
    <text x="159" y="580" text-anchor="middle" class="topic zh" font-size="27">因势利导 · 物理直觉</text>
  </g>

  <!-- topic boxes and connectors: Art -->
  <g class="zh">
    <rect x="786" y="452" width="276" height="68" rx="16" fill="#FFFDF8" stroke="#E5BE83" stroke-width="2.2"/>
    <rect x="786" y="536" width="276" height="68" rx="16" fill="#FFFDF8" stroke="#E5BE83" stroke-width="2.2"/>
    <path d="M776 486 C758 486 760 504 778 522 C784 528 784 535 784 544" fill="none" stroke="#A90F16" stroke-width="3.2" stroke-linecap="round"/>
    <path d="M776 570 C758 570 760 552 778 534" fill="none" stroke="#A90F16" stroke-width="3.2" stroke-linecap="round"/>
    <circle cx="776" cy="486" r="8" fill="#A90F16"/><circle cx="776" cy="570" r="8" fill="#A90F16"/>
    <text x="924" y="496" text-anchor="middle" class="topic zh" font-size="27">建筑装饰摄影</text>
    <text x="924" y="580" text-anchor="middle" class="topic zh" font-size="27">螭首 · 云纹 · 栏板</text>
  </g>

  <!-- major subject nodes -->
  <g class="zh" filter="url(#softShadow)">
    <g>
      <circle cx="390" cy="205" r="96" fill="#FFF9F0" stroke="#E6C089" stroke-width="4"/>
      <circle cx="390" cy="205" r="88" fill="url(#redGrad)" stroke="#FFFFFF" stroke-width="4"/>
      <text x="390" y="201" text-anchor="middle" class="subj zh">语文</text>
      <text x="390" y="247" text-anchor="middle" class="subj-sub zh">跨学科</text>
    </g>
    <g>
      <circle cx="696" cy="205" r="96" fill="#FFF9F0" stroke="#E6C089" stroke-width="4"/>
      <circle cx="696" cy="205" r="88" fill="url(#redGrad)" stroke="#FFFFFF" stroke-width="4"/>
      <text x="696" y="201" text-anchor="middle" class="subj zh">数学</text>
      <text x="696" y="247" text-anchor="middle" class="subj-sub zh">主学科</text>
    </g>
    <g>
      <circle cx="390" cy="530" r="96" fill="#FFF9F0" stroke="#E6C089" stroke-width="4"/>
      <circle cx="390" cy="530" r="88" fill="url(#redGrad)" stroke="#FFFFFF" stroke-width="4"/>
      <text x="390" y="526" text-anchor="middle" class="subj zh">科学</text>
      <text x="390" y="572" text-anchor="middle" class="subj-sub zh">跨学科</text>
    </g>
    <g>
      <circle cx="696" cy="530" r="96" fill="#FFF9F0" stroke="#E6C089" stroke-width="4"/>
      <circle cx="696" cy="530" r="88" fill="url(#redGrad)" stroke="#FFFFFF" stroke-width="4"/>
      <text x="696" y="526" text-anchor="middle" class="subj zh">美术</text>
      <text x="696" y="572" text-anchor="middle" class="subj-sub zh">跨学科</text>
    </g>
  </g>

  <!-- pending subject nodes -->
  <g class="zh">
    <circle cx="190" cy="760" r="47" fill="#FFF9F0" stroke="#E3BD86" stroke-width="2.5"/>
    <circle cx="190" cy="850" r="47" fill="#FFF9F0" stroke="#E3BD86" stroke-width="2.5"/>
    <circle cx="190" cy="940" r="47" fill="#FFF9F0" stroke="#E3BD86" stroke-width="2.5"/>
    <circle cx="190" cy="1030" r="47" fill="#FFF9F0" stroke="#E3BD86" stroke-width="2.5"/>
    <text x="190" y="772" text-anchor="middle" class="pending zh">英语</text>
    <text x="190" y="862" text-anchor="middle" class="pending zh">物理</text>
    <text x="190" y="952" text-anchor="middle" class="pending zh">化学</text>
    <text x="190" y="1042" text-anchor="middle" class="pending zh">生物</text>

    <circle cx="896" cy="725" r="47" fill="#FFF9F0" stroke="#E3BD86" stroke-width="2.5"/>
    <circle cx="896" cy="810" r="47" fill="#FFF9F0" stroke="#E3BD86" stroke-width="2.5"/>
    <rect x="800" y="859" width="192" height="72" rx="34" fill="#FFF9F0" stroke="#E3BD86" stroke-width="2.5"/>
    <circle cx="896" cy="980" r="47" fill="#FFF9F0" stroke="#E3BD86" stroke-width="2.5"/>
    <circle cx="896" cy="1065" r="47" fill="#FFF9F0" stroke="#E3BD86" stroke-width="2.5"/>
    <text x="896" y="737" text-anchor="middle" class="pending zh">历史</text>
    <text x="896" y="822" text-anchor="middle" class="pending zh">地理</text>
    <text x="896" y="908" text-anchor="middle" class="pending zh" font-size="27">道德与法治</text>
    <text x="896" y="992" text-anchor="middle" class="pending zh">音乐</text>
    <text x="896" y="1077" text-anchor="middle" class="pending zh">体育</text>
  </g>

  <!-- central root node -->
  <g class="zh" filter="url(#softShadow)">
    <circle cx="543" cy="1110" r="132" fill="#FFF9F0" stroke="#E4BB80" stroke-width="4"/>
    <circle cx="543" cy="1110" r="120" fill="#FFFDF8" stroke="#F1DCC0" stroke-width="3"/>
    <!-- open book icon -->
    <g transform="translate(543,1044)" fill="#A50E14">
      <path d="M-58 -17 C-37 -26 -16 -23 0 -10 L0 43 C-16 31 -37 27 -58 35 Z"/>
      <path d="M58 -17 C37 -26 16 -23 0 -10 L0 43 C16 31 37 27 58 35 Z"/>
      <rect x="-4" y="-12" width="8" height="60" rx="4"/>
      <path d="M-61 40 C-38 32 -18 34 0 47 C18 34 38 32 61 40 L61 48 C38 40 18 42 0 55 C-18 42 -38 40 -61 48 Z"/>
    </g>
    <text x="543" y="1186" text-anchor="middle" fill="#35180D" font-size="58" font-weight="800" class="zh">知识树</text>
  </g>

  <!-- legend -->
  <g class="zh">
    <rect x="120" y="1342" width="846" height="76" rx="18" fill="#FFFDF8" stroke="#E4BE86" stroke-width="2.4"/>
    <circle cx="180" cy="1380" r="18" fill="url(#redGrad)"/>
    <text x="218" y="1392" fill="#3B2418" font-size="31" font-weight="700" class="zh">本次点亮（已点亮）</text>
    <circle cx="692" cy="1380" r="18" fill="#FFFDF8" stroke="#CFA66B" stroke-width="3"/>
    <text x="730" y="1392" fill="#3B2418" font-size="31" font-weight="700" class="zh">待点亮</text>
  </g>
</svg>
